<svg width="248" height="42" viewBox="0 0 248 42" fill="none" xmlns="http://www.w3.org/2000/svg">
<path d="M43.304 1.823V41H36.149V16.943C36.149 16.439 36.158 15.899 36.176 15.323C36.212 14.747 36.266 14.162 36.338 13.568L25.133 34.817C24.521 35.987 23.576 36.572 22.298 36.572H21.164C20.534 36.572 19.976 36.428 19.49 36.14C19.004 35.834 18.617 35.393 18.329 34.817L7.07 13.487C7.124 14.117 7.169 14.729 7.205 15.323C7.241 15.899 7.259 16.439 7.259 16.943V41H0.104V1.823H6.26C6.602 1.823 6.908 1.832 7.178 1.85C7.448 1.868 7.682 1.922 7.88 2.012C8.096 2.084 8.285 2.21 8.447 2.39C8.627 2.552 8.798 2.786 8.96 3.092L19.922 23.99C20.264 24.62 20.579 25.268 20.867 25.934C21.173 26.6 21.461 27.284 21.731 27.986C22.001 27.266 22.28 26.564 22.568 25.88C22.874 25.196 23.198 24.539 23.54 23.909L34.421 3.092C34.583 2.786 34.754 2.552 34.934 2.39C35.114 2.21 35.303 2.084 35.501 2.012C35.717 1.922 35.951 1.868 36.203 1.85C36.473 1.832 36.788 1.823 37.148 1.823H43.304ZM67.2555 23.801C67.2555 23.027 67.1475 22.289 66.9315 21.587C66.7335 20.885 66.4095 20.264 65.9595 19.724C65.5095 19.184 64.9425 18.761 64.2585 18.455C63.5745 18.131 62.7555 17.969 61.8015 17.969C60.0195 17.969 58.6245 18.473 57.6165 19.481C56.6085 20.489 55.9515 21.929 55.6455 23.801H67.2555ZM55.5375 28.229C55.7715 30.839 56.5095 32.747 57.7515 33.953C59.0115 35.159 60.6495 35.762 62.6655 35.762C63.6915 35.762 64.5735 35.645 65.3115 35.411C66.0675 35.159 66.7245 34.889 67.2825 34.601C67.8585 34.295 68.3715 34.025 68.8215 33.791C69.2895 33.539 69.7485 33.413 70.1985 33.413C70.7745 33.413 71.2245 33.629 71.5485 34.061L73.7085 36.761C72.9165 37.679 72.0435 38.444 71.0895 39.056C70.1355 39.65 69.1455 40.127 68.1195 40.487C67.0935 40.829 66.0585 41.063 65.0145 41.189C63.9705 41.333 62.9625 41.405 61.9905 41.405C60.0465 41.405 58.2285 41.09 56.5365 40.46C54.8625 39.812 53.3955 38.867 52.1355 37.625C50.8935 36.365 49.9125 34.808 49.1925 32.954C48.4725 31.1 48.1125 28.949 48.1125 26.501C48.1125 24.611 48.4185 22.829 49.0305 21.155C49.6605 19.481 50.5605 18.023 51.7305 16.781C52.9005 15.539 54.3225 14.558 55.9965 13.838C57.6705 13.1 59.5605 12.731 61.6665 12.731C63.4485 12.731 65.0865 13.019 66.5805 13.595C68.0925 14.153 69.3885 14.972 70.4685 16.052C71.5665 17.132 72.4125 18.464 73.0065 20.048C73.6185 21.614 73.9245 23.405 73.9245 25.421C73.9245 25.979 73.8975 26.438 73.8435 26.798C73.7895 27.158 73.6995 27.446 73.5735 27.662C73.4475 27.878 73.2765 28.031 73.0605 28.121C72.8445 28.193 72.5655 28.229 72.2235 28.229H55.5375ZM95.7477 20.399C95.0457 19.589 94.2807 19.022 93.4527 18.698C92.6427 18.374 91.7787 18.212 90.8607 18.212C89.9607 18.212 89.1417 18.383 88.4037 18.725C87.6657 19.067 87.0267 19.607 86.4867 20.345C85.9647 21.065 85.5597 21.992 85.2717 23.126C84.9837 24.26 84.8397 25.61 84.8397 27.176C84.8397 28.724 84.9567 30.038 85.1907 31.118C85.4247 32.198 85.7577 33.071 86.1897 33.737C86.6397 34.403 87.1797 34.889 87.8097 35.195C88.4397 35.483 89.1417 35.627 89.9157 35.627C91.2297 35.627 92.3277 35.366 93.2097 34.844C94.1097 34.322 94.9557 33.584 95.7477 32.63V20.399ZM103.2 0.742998V41H98.6097C97.6557 41 97.0437 40.568 96.7737 39.704L96.1527 37.274C95.5947 37.886 95.0007 38.444 94.3707 38.948C93.7587 39.452 93.0927 39.893 92.3727 40.271C91.6527 40.631 90.8787 40.91 90.0507 41.108C89.2227 41.306 88.3227 41.405 87.3507 41.405C85.8567 41.405 84.4887 41.09 83.2467 40.46C82.0047 39.83 80.9247 38.912 80.0067 37.706C79.1067 36.482 78.4047 34.988 77.9007 33.224C77.3967 31.46 77.1447 29.444 77.1447 27.176C77.1447 25.106 77.4237 23.18 77.9817 21.398C78.5577 19.616 79.3677 18.077 80.4117 16.781C81.4557 15.485 82.7157 14.468 84.1917 13.73C85.6677 12.992 87.3057 12.623 89.1057 12.623C90.6177 12.623 91.8867 12.848 92.9127 13.298C93.9567 13.748 94.9017 14.36 95.7477 15.134V0.742998H103.2ZM117.066 13.163V41H109.614V13.163H117.066ZM117.957 5.252C117.957 5.882 117.831 6.467 117.579 7.007C117.327 7.547 116.985 8.024 116.553 8.438C116.139 8.852 115.644 9.176 115.068 9.41C114.51 9.644 113.907 9.761 113.259 9.761C112.647 9.761 112.062 9.644 111.504 9.41C110.964 9.176 110.487 8.852 110.073 8.438C109.659 8.024 109.326 7.547 109.074 7.007C108.84 6.467 108.723 5.882 108.723 5.252C108.723 4.622 108.84 4.037 109.074 3.497C109.326 2.939 109.659 2.453 110.073 2.039C110.487 1.625 110.964 1.301 111.504 1.067C112.062 0.832997 112.647 0.715997 113.259 0.715997C113.907 0.715997 114.51 0.832997 115.068 1.067C115.644 1.301 116.139 1.625 116.553 2.039C116.985 2.453 117.327 2.939 117.579 3.497C117.831 4.037 117.957 4.622 117.957 5.252ZM139.122 34.79C140.418 34.79 141.48 34.637 142.308 34.331C143.154 34.007 143.829 33.584 144.333 33.062C144.837 32.54 145.188 31.946 145.386 31.28C145.584 30.596 145.683 29.894 145.683 29.174C145.683 28.382 145.566 27.671 145.332 27.041C145.098 26.411 144.72 25.88 144.198 25.448C143.676 24.998 142.992 24.656 142.146 24.422C141.318 24.188 140.292 24.071 139.068 24.071H132.183V34.79H139.122ZM132.183 7.979V18.563H137.502C138.636 18.563 139.644 18.473 140.526 18.293C141.408 18.095 142.146 17.789 142.74 17.375C143.334 16.961 143.784 16.421 144.09 15.755C144.414 15.071 144.576 14.252 144.576 13.298C144.576 12.326 144.441 11.498 144.171 10.814C143.919 10.13 143.523 9.581 142.983 9.167C142.443 8.753 141.759 8.456 140.931 8.276C140.103 8.078 139.122 7.979 137.988 7.979H132.183ZM137.988 1.823C140.616 1.823 142.857 2.075 144.711 2.579C146.583 3.065 148.104 3.767 149.274 4.685C150.462 5.585 151.326 6.683 151.866 7.979C152.406 9.275 152.676 10.724 152.676 12.326C152.676 13.226 152.541 14.09 152.271 14.918C152.019 15.746 151.614 16.529 151.056 17.267C150.516 17.987 149.814 18.644 148.95 19.238C148.086 19.832 147.06 20.336 145.872 20.75C148.536 21.38 150.507 22.406 151.785 23.828C153.063 25.25 153.702 27.095 153.702 29.363C153.702 31.019 153.378 32.558 152.73 33.98C152.1 35.402 151.173 36.635 149.949 37.679C148.725 38.723 147.213 39.542 145.413 40.136C143.631 40.712 141.579 41 139.257 41H124.083V1.823H137.988ZM171.049 12.731C173.137 12.731 175.036 13.064 176.746 13.73C178.456 14.396 179.923 15.35 181.147 16.592C182.371 17.816 183.316 19.31 183.982 21.074C184.648 22.838 184.981 24.827 184.981 27.041C184.981 29.255 184.648 31.253 183.982 33.035C183.316 34.799 182.371 36.302 181.147 37.544C179.923 38.786 178.456 39.74 176.746 40.406C175.036 41.072 173.137 41.405 171.049 41.405C168.943 41.405 167.026 41.072 165.298 40.406C163.588 39.74 162.121 38.786 160.897 37.544C159.673 36.302 158.719 34.799 158.035 33.035C157.369 31.253 157.036 29.255 157.036 27.041C157.036 24.827 157.369 22.838 158.035 21.074C158.719 19.31 159.673 17.816 160.897 16.592C162.121 15.35 163.588 14.396 165.298 13.73C167.026 13.064 168.943 12.731 171.049 12.731ZM171.049 35.816C173.173 35.816 174.748 35.087 175.774 33.629C176.8 32.153 177.313 29.966 177.313 27.068C177.313 24.188 176.8 22.019 175.774 20.561C174.748 19.085 173.173 18.347 171.049 18.347C168.871 18.347 167.269 19.085 166.243 20.561C165.217 22.019 164.704 24.188 164.704 27.068C164.704 29.966 165.217 32.153 166.243 33.629C167.269 35.087 168.871 35.816 171.049 35.816ZM202.215 12.731C204.303 12.731 206.202 13.064 207.912 13.73C209.622 14.396 211.089 15.35 212.313 16.592C213.537 17.816 214.482 19.31 215.148 21.074C215.814 22.838 216.147 24.827 216.147 27.041C216.147 29.255 215.814 31.253 215.148 33.035C214.482 34.799 213.537 36.302 212.313 37.544C211.089 38.786 209.622 39.74 207.912 40.406C206.202 41.072 204.303 41.405 202.215 41.405C200.109 41.405 198.192 41.072 196.464 40.406C194.754 39.74 193.287 38.786 192.063 37.544C190.839 36.302 189.885 34.799 189.201 33.035C188.535 31.253 188.202 29.255 188.202 27.041C188.202 24.827 188.535 22.838 189.201 21.074C189.885 19.31 190.839 17.816 192.063 16.592C193.287 15.35 194.754 14.396 196.464 13.73C198.192 13.064 200.109 12.731 202.215 12.731ZM202.215 35.816C204.339 35.816 205.914 35.087 206.94 33.629C207.966 32.153 208.479 29.966 208.479 27.068C208.479 24.188 207.966 22.019 206.94 20.561C205.914 19.085 204.339 18.347 202.215 18.347C200.037 18.347 198.435 19.085 197.409 20.561C196.383 22.019 195.87 24.188 195.87 27.068C195.87 29.966 196.383 32.153 197.409 33.629C198.435 35.087 200.037 35.816 202.215 35.816ZM228.278 0.742998V23.585H229.52C229.988 23.585 230.357 23.522 230.627 23.396C230.897 23.252 231.167 23 231.437 22.64L237.593 14.432C237.899 14.018 238.241 13.703 238.619 13.487C239.015 13.271 239.51 13.163 240.104 13.163H246.908L238.916 23.315C238.286 24.161 237.557 24.827 236.729 25.313C237.143 25.601 237.503 25.934 237.809 26.312C238.115 26.69 238.412 27.113 238.7 27.581L247.313 41H240.617C240.041 41 239.546 40.91 239.132 40.73C238.718 40.532 238.376 40.19 238.106 39.704L231.842 29.471C231.59 29.039 231.329 28.76 231.059 28.634C230.789 28.508 230.384 28.445 229.844 28.445H228.278V41H220.826V0.742998H228.278Z" fill="white"/>
</svg>
