<svg width="180" height="180" viewBox="0 0 180 180" fill="none" xmlns="http://www.w3.org/2000/svg">
<circle cx="90" cy="90" r="90" fill="white"/>
<path d="M99.432 53.064L90.792 123H77.064L81.96 82.296C82.088 81.432 82.248 80.488 82.44 79.464C82.632 78.408 82.856 77.32 83.112 76.2L62.088 112.296C61.416 113.352 60.568 114.152 59.544 114.696C58.552 115.24 57.448 115.512 56.232 115.512H54.12C52.904 115.512 51.848 115.24 50.952 114.696C50.056 114.152 49.416 113.352 49.032 112.296L36.744 76.056C36.712 77.144 36.664 78.2 36.6 79.224C36.536 80.248 36.456 81.192 36.36 82.056L31.56 123H17.736L26.376 53.064H38.28C38.952 53.064 39.512 53.096 39.96 53.16C40.44 53.224 40.856 53.336 41.208 53.496C41.56 53.656 41.88 53.896 42.168 54.216C42.488 54.536 42.824 54.952 43.176 55.464L55.464 92.28C55.816 93.272 56.136 94.296 56.424 95.352C56.712 96.376 56.984 97.416 57.24 98.472C57.72 97.416 58.232 96.376 58.776 95.352C59.32 94.296 59.912 93.272 60.552 92.28L81.96 55.464C82.44 54.952 82.872 54.536 83.256 54.216C83.64 53.896 84.024 53.656 84.408 53.496C84.792 53.336 85.224 53.224 85.704 53.16C86.184 53.096 86.76 53.064 87.432 53.064H99.432Z" fill="#68BBE3"/>
<path d="M130.877 111.24C132.797 111.24 134.413 110.968 135.725 110.424C137.037 109.848 138.093 109.064 138.893 108.072C139.725 107.048 140.317 105.864 140.669 104.52C141.053 103.176 141.245 101.704 141.245 100.104C141.245 99.048 141.101 98.088 140.813 97.224C140.557 96.36 140.093 95.64 139.421 95.064C138.781 94.456 137.917 93.992 136.829 93.672C135.773 93.32 134.461 93.144 132.893 93.144H122.813L120.605 111.24H130.877ZM126.269 64.728L124.061 82.776H131.549C133.309 82.776 134.893 82.6 136.301 82.248C137.709 81.896 138.909 81.304 139.901 80.472C140.925 79.608 141.709 78.472 142.253 77.064C142.797 75.656 143.069 73.912 143.069 71.832C143.069 69.24 142.381 67.416 141.005 66.36C139.661 65.272 137.565 64.728 134.717 64.728H126.269ZM136.157 53.064C140.221 53.064 143.693 53.448 146.573 54.216C149.485 54.984 151.853 56.088 153.677 57.528C155.533 58.936 156.877 60.648 157.709 62.664C158.573 64.648 159.005 66.856 159.005 69.288C159.005 71.208 158.749 73.064 158.237 74.856C157.757 76.616 156.973 78.248 155.885 79.752C154.829 81.256 153.453 82.616 151.757 83.832C150.093 85.048 148.061 86.088 145.661 86.952C149.437 87.976 152.221 89.576 154.013 91.752C155.805 93.896 156.701 96.616 156.701 99.912C156.701 103.144 156.077 106.168 154.829 108.984C153.613 111.768 151.837 114.2 149.501 116.28C147.165 118.36 144.317 120.008 140.957 121.224C137.629 122.408 133.853 123 129.629 123H103.517L112.157 53.064H136.157Z" fill="#054DFF"/>
</svg>
